<svg xmlns="http://www.w3.org/2000/svg" xmlns:xlink="http://www.w3.org/1999/xlink" width="500" zoomAndPan="magnify" viewBox="0 0 375 374.999991" height="500" preserveAspectRatio="xMidYMid meet" version="1.2"><defs/><g id="4fe752e04c"><g style="fill:#000000;fill-opacity:1;"><g transform="translate(168.834258, 203.597447)"><path style="stroke:none" d="M 16.6875 -47.890625 C 14.8125 -47.890625 13.101562 -48.351562 11.5625 -49.28125 C 10.019531 -50.21875 8.78125 -51.472656 7.84375 -53.046875 C 6.90625 -54.617188 6.4375 -56.34375 6.4375 -58.21875 C 6.4375 -60.15625 6.90625 -61.894531 7.84375 -63.4375 C 8.78125 -64.976562 10.019531 -66.21875 11.5625 -67.15625 C 13.101562 -68.09375 14.8125 -68.5625 16.6875 -68.5625 C 18.625 -68.5625 20.363281 -68.09375 21.90625 -67.15625 C 23.445312 -66.21875 24.6875 -64.976562 25.625 -63.4375 C 26.5625 -61.894531 27.03125 -60.15625 27.03125 -58.21875 C 27.03125 -56.34375 26.5625 -54.617188 25.625 -53.046875 C 24.6875 -51.472656 23.445312 -50.21875 21.90625 -49.28125 C 20.363281 -48.351562 18.625 -47.890625 16.6875 -47.890625 Z M 4.4375 -5.625 C 3.59375 -11.1875 3.21875 -16.789062 3.3125 -22.4375 C 3.40625 -28.09375 3.8125 -34.335938 4.53125 -41.171875 L 18.59375 -41.171875 C 17.925781 -34.222656 17.925781 -27.859375 18.59375 -22.078125 C 19.257812 -16.304688 20.40625 -10.820312 22.03125 -5.625 Z M 4.4375 -5.625 "/></g></g><g style="fill:#000000;fill-opacity:1;"><g transform="translate(191.776239, 203.597447)"><path style="stroke:none" d="M 38.640625 -42.171875 C 42.628906 -42.171875 45.707031 -41.003906 47.875 -38.671875 C 50.050781 -36.347656 51.410156 -33.207031 51.953125 -29.25 C 52.503906 -25.289062 52.3125 -20.832031 51.375 -15.875 C 50.4375 -10.914062 48.832031 -5.789062 46.5625 -0.5 C 44.300781 4.789062 41.476562 9.914062 38.09375 14.875 L 19.5 15.046875 C 21.25 12.578125 22.984375 9.8125 24.703125 6.75 C 26.429688 3.695312 28.035156 0.601562 29.515625 -2.53125 C 30.992188 -5.675781 32.21875 -8.710938 33.1875 -11.640625 C 34.15625 -14.578125 34.757812 -17.222656 35 -19.578125 C 35.25 -21.941406 35.007812 -23.800781 34.28125 -25.15625 C 33.550781 -26.519531 32.191406 -27.203125 30.203125 -27.203125 C 26.628906 -27.203125 23.769531 -25.882812 21.625 -23.25 C 19.476562 -20.625 18.347656 -17.347656 18.234375 -13.421875 C 18.535156 -11.609375 18.878906 -9.75 19.265625 -7.84375 C 19.660156 -5.9375 20.160156 -4.015625 20.765625 -2.078125 L 6.703125 -2.078125 C 4.171875 -10.304688 2.613281 -17.863281 2.03125 -24.75 C 1.457031 -31.644531 2.019531 -38.507812 3.71875 -45.34375 L 22.125 -45.34375 C 21.34375 -43.46875 20.648438 -41.515625 20.046875 -39.484375 C 19.441406 -37.460938 18.925781 -35.394531 18.5 -33.28125 C 20.550781 -36 23.207031 -38.1875 26.46875 -39.84375 C 29.738281 -41.507812 33.796875 -42.285156 38.640625 -42.171875 Z M 38.640625 -42.171875 "/></g></g><g style="fill:#000000;fill-opacity:1;"><g transform="translate(248.179049, 203.597447)"><path style="stroke:none" d="M 16.6875 -47.890625 C 14.8125 -47.890625 13.101562 -48.351562 11.5625 -49.28125 C 10.019531 -50.21875 8.78125 -51.472656 7.84375 -53.046875 C 6.90625 -54.617188 6.4375 -56.34375 6.4375 -58.21875 C 6.4375 -60.15625 6.90625 -61.894531 7.84375 -63.4375 C 8.78125 -64.976562 10.019531 -66.21875 11.5625 -67.15625 C 13.101562 -68.09375 14.8125 -68.5625 16.6875 -68.5625 C 18.625 -68.5625 20.363281 -68.09375 21.90625 -67.15625 C 23.445312 -66.21875 24.6875 -64.976562 25.625 -63.4375 C 26.5625 -61.894531 27.03125 -60.15625 27.03125 -58.21875 C 27.03125 -56.34375 26.5625 -54.617188 25.625 -53.046875 C 24.6875 -51.472656 23.445312 -50.21875 21.90625 -49.28125 C 20.363281 -48.351562 18.625 -47.890625 16.6875 -47.890625 Z M 4.4375 -5.625 C 3.59375 -11.1875 3.21875 -16.789062 3.3125 -22.4375 C 3.40625 -28.09375 3.8125 -34.335938 4.53125 -41.171875 L 18.59375 -41.171875 C 17.925781 -34.222656 17.925781 -27.859375 18.59375 -22.078125 C 19.257812 -16.304688 20.40625 -10.820312 22.03125 -5.625 Z M 4.4375 -5.625 "/></g></g><g style="fill:#000000;fill-opacity:1;"><g transform="translate(99.47018, 201.345023)"><path style="stroke:none" d="M 40.09375 -18.84375 C 40.789062 -15.976562 41.820312 -13.316406 43.1875 -10.859375 C 44.5625 -8.398438 46.441406 -5.925781 48.828125 -3.4375 C 51.222656 -0.957031 54.238281 1.78125 57.875 4.78125 L 44.015625 18.171875 C 42.035156 16.710938 40.007812 14.816406 37.9375 12.484375 C 35.863281 10.160156 33.898438 7.59375 32.046875 4.78125 C 30.203125 1.976562 28.609375 -0.867188 27.265625 -3.765625 C 25.921875 -6.671875 24.976562 -9.429688 24.4375 -12.046875 C 23.894531 -14.671875 23.878906 -16.9375 24.390625 -18.84375 C 29.179688 -21.007812 32.46875 -22.96875 34.25 -24.71875 C 36.03125 -26.476562 36.710938 -27.898438 36.296875 -28.984375 C 35.890625 -30.066406 34.726562 -30.609375 32.8125 -30.609375 C 29.945312 -30.609375 27.507812 -29.75 25.5 -28.03125 C 23.488281 -26.3125 22.019531 -23.984375 21.09375 -21.046875 C 20.164062 -18.109375 19.832031 -14.820312 20.09375 -11.1875 C 20.34375 -9.40625 20.609375 -7.78125 20.890625 -6.3125 C 21.179688 -4.84375 21.519531 -3.472656 21.90625 -2.203125 L 7.078125 -2.203125 C 5.992188 -5.640625 5.113281 -10.066406 4.4375 -15.484375 C 3.769531 -20.910156 3.328125 -26.925781 3.109375 -33.53125 C 2.890625 -40.132812 2.875 -47.023438 3.0625 -54.203125 C 3.25 -61.378906 3.675781 -68.472656 4.34375 -75.484375 C 5.019531 -82.503906 5.898438 -89.070312 6.984375 -95.1875 L 26.40625 -95.1875 C 25 -89.507812 23.769531 -83.320312 22.71875 -76.625 C 21.664062 -69.9375 20.835938 -63.097656 20.234375 -56.109375 C 19.628906 -49.128906 19.265625 -42.382812 19.140625 -35.875 C 21.242188 -39.0625 24.0625 -41.644531 27.59375 -43.625 C 31.132812 -45.601562 35.519531 -46.53125 40.75 -46.40625 C 43.175781 -46.40625 45.457031 -45.894531 47.59375 -44.875 C 49.726562 -43.851562 51.414062 -42.460938 52.65625 -40.703125 C 53.90625 -38.953125 54.414062 -36.894531 54.1875 -34.53125 C 53.96875 -32.175781 52.757812 -29.675781 50.5625 -27.03125 C 48.363281 -24.382812 44.875 -21.65625 40.09375 -18.84375 Z M 40.09375 -18.84375 "/></g></g></g></svg>